# Blender v2.75 (sub 0) OBJ File: 'kb.blend'
# www.blender.org
mtllib Keyboard.mtl
o Cube_Cube.002
v -0.475000 -0.047500 1.200000
v -0.500000 -0.047500 1.140000
v -0.475000 -0.050000 1.140000
v -0.475000 0.047500 1.200000
v -0.475000 0.050000 1.140000
v -0.500000 0.047500 1.140000
v -0.475000 -0.047500 -1.200000
v -0.475000 -0.050000 -1.140000
v -0.500000 -0.047500 -1.140000
v -0.475000 0.050000 -1.140000
v -0.475000 0.047500 -1.200000
v -0.500000 0.047500 -1.140000
v 0.475000 -0.047500 1.200000
v 0.475000 -0.050000 1.140000
v 0.500000 -0.047500 1.140000
v 0.475000 0.050000 1.140000
v 0.475000 0.047500 1.200000
v 0.500000 0.047500 1.140000
v 0.500000 -0.047500 -1.140000
v 0.475000 -0.050000 -1.140000
v 0.475000 -0.047500 -1.200000
v 0.475000 0.050000 -1.140000
v 0.500000 0.047500 -1.140000
v 0.475000 0.047500 -1.200000
vt 0.006710 0.000000
vt 1.000000 0.000001
vt 0.999992 0.992096
vt 0.006702 0.992095
vt 0.210051 0.421558
vt 0.207030 0.422209
vt 0.207719 0.414091
vt 0.143179 0.389486
vt 0.197366 0.610515
vt 0.133515 0.577792
vt 0.322443 0.965242
vt 0.017450 0.961050
vt 0.132826 0.585909
vt 0.197579 0.619395
vt 0.011885 0.945710
vt 0.012894 0.051036
vt 0.140404 0.387506
vt 0.130494 0.578443
vt 0.328660 0.054291
vt 0.327651 0.948964
vt 0.200141 0.612494
vt 0.142966 0.380606
vt 0.000083 0.000083
vt 0.018102 0.034758
vt 0.340462 0.001440
vt 0.323095 0.038951
vt 0.000084 0.998560
vt 0.340462 0.999917
vn 0.000000 1.000000 0.000000
vn -0.099400 -0.994200 -0.041400
vn 0.000000 -1.000000 0.000000
vn 1.000000 0.000000 0.000000
vn 0.000000 0.000000 1.000000
vn 0.000000 0.000000 -1.000000
vn -0.099400 -0.994200 0.041400
vn -0.099400 0.994200 0.041400
vn -0.099400 0.994200 -0.041400
vn 0.099400 -0.994200 0.041400
vn 0.099400 0.994200 0.041400
vn 0.099400 -0.994200 -0.041400
vn 0.099400 0.994200 -0.041400
vn -0.923100 0.000000 0.384600
vn -0.099500 0.995000 0.000000
vn -0.923100 0.000000 -0.384600
vn -0.099500 -0.995000 0.000000
vn 0.000000 0.999100 -0.041600
vn 0.923100 0.000000 -0.384600
vn 0.000000 -0.999100 -0.041600
vn 0.099500 0.995000 0.000000
vn 0.923100 0.000000 0.384600
vn 0.099500 -0.995000 0.000000
vn 0.000000 0.999100 0.041600
vn 0.000000 -0.999100 0.041600
vn -1.000000 0.000000 0.000000
usemtl Material
s off
f 16/1/1 22/2/1 10/3/1 5/4/1
usemtl Material.002
f 7/5/2 8/6/2 9/7/2
usemtl Material.002_NONE
f 3/8/3 8/6/3 20/9/3 14/10/3
f 23/11/4 18/12/4 15/13/4 19/14/4
f 17/15/5 4/16/5 1/17/5 13/18/5
f 11/19/6 24/20/6 21/21/6 7/5/6
f 1/17/7 2/22/7 3/8/7
f 4/16/8 5/23/8 6/24/8
f 10/25/9 11/19/9 12/26/9
f 13/18/10 14/10/10 15/13/10
f 16/27/11 17/15/11 18/12/11
f 19/14/12 20/9/12 21/21/12
f 22/28/13 23/11/13 24/20/13
f 1/17/14 4/16/14 6/24/14 2/22/14
f 5/23/15 10/25/15 12/26/15 6/24/15
f 11/19/16 7/5/16 9/7/16 12/26/16
f 8/6/17 3/8/17 2/22/17 9/7/17
f 10/25/18 22/28/18 24/20/18 11/19/18
f 23/11/19 19/14/19 21/21/19 24/20/19
f 20/9/20 8/6/20 7/5/20 21/21/20
f 22/28/21 16/27/21 18/12/21 23/11/21
f 17/15/22 13/18/22 15/13/22 18/12/22
f 14/10/23 20/9/23 19/14/23 15/13/23
f 16/27/24 5/23/24 4/16/24 17/15/24
f 3/8/25 14/10/25 13/18/25 1/17/25
f 6/24/26 12/26/26 9/7/26 2/22/26
